<?xml version="1.0" encoding="UTF-8" standalone="no"?>
<svg width="26px" height="16px" viewBox="0 0 26 16" version="1.1" xmlns="http://www.w3.org/2000/svg" xmlns:xlink="http://www.w3.org/1999/xlink">
    <!-- Generator: Sketch 3.6.1 (26313) - http://www.bohemiancoding.com/sketch -->
    <title>Behance</title>
    <desc>Created with Sketch.</desc>
    <defs></defs>
    <g id="Page-1" stroke="none" stroke-width="1" fill="none" fill-rule="evenodd">
        <g id="Home---about-me-Copy" transform="translate(-706.000000, -651.000000)" fill="#1769FF">
            <g id="Group-6" transform="translate(674.000000, 651.000000)">
                <path d="M48.358276,2.66988399 L55.1375984,2.66988399 L55.1375984,0.727610209 L48.358276,0.727610209 L48.358276,2.66988399 L48.358276,2.66988399 Z M49.9643011,6.90784223 C49.532315,7.34737819 49.2598778,7.94283063 49.1484946,8.69419954 L54.4211336,8.69419954 C54.365442,7.89234339 54.0914996,7.28649652 53.6068322,6.86923434 C53.1161442,6.454942 52.5125677,6.24853828 51.7900822,6.24853828 C51.0073896,6.24853828 50.3962872,6.46830626 49.9643011,6.90784223 L49.9643011,6.90784223 L49.9643011,6.90784223 Z M54.5400427,4.30032483 C55.3573544,4.65967517 56.030169,5.22988399 56.5599917,6.00798144 C57.0431539,6.69401392 57.3532206,7.48993039 57.4947074,8.39424594 C57.5774922,8.92287703 57.6106061,9.68909513 57.5970595,10.6854756 L49.0732357,10.6854756 C49.1244117,11.8422274 49.5277995,12.654478 50.2984507,13.1192575 C50.7650559,13.4088167 51.3264873,13.5543387 51.9857554,13.5543387 C52.6796425,13.5543387 53.2470947,13.3776334 53.6820911,13.0257077 C53.9214145,12.8341531 54.1321394,12.5698376 54.3127608,12.2312761 L57.4360054,12.2312761 C57.3532206,12.9143387 56.9739157,13.6107657 56.3026063,14.317587 C55.2550023,15.4387007 53.7874536,16 51.9014654,16 C50.343606,16 48.9693784,15.5277958 47.7817928,14.5804176 C46.5881866,13.6345244 45.9951464,12.0931787 45.9951464,9.96083527 C45.9951464,7.96064965 46.532495,6.42672854 47.605687,5.35907193 C48.6818893,4.29438515 50.0741791,3.75832947 51.788577,3.75832947 C52.8075826,3.75832947 53.7242361,3.93948956 54.5400427,4.30032483 L54.5400427,4.30032483 L54.5400427,4.30032483 Z M35.1533482,8.73577726 L35.1533482,12.8980046 L38.9945628,12.8980046 C39.6809241,12.8980046 40.2167675,12.8059397 40.5975775,12.6232947 C41.2914647,12.2817633 41.6376556,11.6343387 41.6376556,10.6750812 C41.6376556,9.86134571 41.3035061,9.30450116 40.6306915,9.00009281 C40.2543969,8.83081206 39.7260794,8.74171694 39.0487492,8.73577726 L35.1533482,8.73577726 L35.1533482,8.73577726 Z M35.1533482,2.7099768 L35.1533482,6.15350348 L39.0005835,6.15350348 C39.6854396,6.15350348 40.2438607,6.02431555 40.6743416,5.76593968 C41.1018122,5.50756381 41.3170527,5.05020882 41.3170527,4.39684455 C41.3170527,3.66774942 41.0340792,3.18812065 40.4681322,2.95350348 C39.9774442,2.79164733 39.3543004,2.7099768 38.5971958,2.7099768 L35.1533482,2.7099768 L35.1533482,2.7099768 Z M43.744905,1.66310905 C44.2280672,2.32686775 44.4704009,3.11981439 44.4704009,4.04491879 C44.4704009,4.99675174 44.2280672,5.76445476 43.7388843,6.34357309 C43.4649419,6.66728538 43.0630593,6.96426914 42.5317315,7.23155452 C43.3385069,7.52259861 43.9465989,7.98143852 44.3605229,8.60955916 C44.7699314,9.2361949 44.9761408,9.99944316 44.9761408,10.8963341 C44.9761408,11.8214385 44.741333,12.6515081 44.2702122,13.385058 C43.9721869,13.8706265 43.5989028,14.280464 43.1503597,14.6130858 C42.646125,14.99471 42.0515796,15.2545708 41.3637132,15.397123 C40.6758468,15.5381903 39.9322888,15.6064965 39.1285237,15.6064965 L32,15.6064965 L32,0 L39.6447998,0 C41.5744382,0.0282134571 42.9396347,0.582088167 43.744905,1.66310905 L43.744905,1.66310905 L43.744905,1.66310905 Z" id="Behance"></path>
            </g>
        </g>
    </g>
</svg>