<?xml version="1.0" encoding="UTF-8" standalone="no"?>
<svg width="18px" height="16px" viewBox="0 0 18 16" version="1.1" xmlns="http://www.w3.org/2000/svg" xmlns:xlink="http://www.w3.org/1999/xlink">
    <!-- Generator: Sketch 3.6.1 (26313) - http://www.bohemiancoding.com/sketch -->
    <title>LinkedIn</title>
    <desc>Created with Sketch.</desc>
    <defs></defs>
    <g id="Page-1" stroke="none" stroke-width="1" fill="none" fill-rule="evenodd">
        <g id="Home---about-me-Copy" transform="translate(-748.000000, -651.000000)" fill="#007EBB">
            <g id="Group-6" transform="translate(674.000000, 651.000000)">
                <path d="M91.6,16 L87.7101599,16 L87.7101599,10.3753602 C87.7101599,8.9031184 87.1016933,7.89805981 85.7636877,7.89805981 C84.7402634,7.89805981 84.1711195,8.57629506 83.9062088,9.22994173 C83.8068674,9.46455785 83.8223895,9.79138119 83.8223895,10.1182045 L83.8223895,16 L79.9687676,16 C79.9687676,16 80.0184384,6.03649869 79.9687676,5.13081898 L83.8223895,5.13081898 L83.8223895,6.83665237 C84.050047,6.09079849 85.2814675,5.02631747 87.2465663,5.02631747 C89.684572,5.02631747 91.6,6.58974195 91.6,9.95632964 L91.6,16 L91.6,16 Z M76.0716839,3.77127489 L76.0468485,3.77127489 C74.80508,3.77127489 74,2.94038548 74,1.88717423 C74,0.813472498 74.8288805,0 76.0954845,0 C77.3610536,0 78.1392286,0.811423449 78.164064,1.88410066 C78.164064,2.9373119 77.3610536,3.77127489 76.0716839,3.77127489 L76.0716839,3.77127489 L76.0716839,3.77127489 Z M74.4439323,5.13081898 L77.874318,5.13081898 L77.874318,16 L74.4439323,16 L74.4439323,5.13081898 L74.4439323,5.13081898 Z" id="LinkedIn"></path>
            </g>
        </g>
    </g>
</svg>