<?xml version="1.0" encoding="UTF-8" standalone="no"?>
<svg width="299px" height="141px" viewBox="0 0 299 141" version="1.1" xmlns="http://www.w3.org/2000/svg" xmlns:xlink="http://www.w3.org/1999/xlink">
    <!-- Generator: Sketch 3.6.1 (26313) - http://www.bohemiancoding.com/sketch -->
    <title>Top image</title>
    <desc>Created with Sketch.</desc>
    <defs></defs>
    <g id="Page-1" stroke="none" stroke-width="1" fill="none" fill-rule="evenodd">
        <g id="Home---about-me-Copy" transform="translate(-570.000000, -59.000000)">
            <g id="Top-image" transform="translate(570.000000, 60.000000)">
                <g id="Group-4">
                    <circle id="Oval-2" fill="#FFD54F" cx="116" cy="68" r="44"></circle>
                    <g id="Group-3" transform="translate(0.000000, 12.000000)" stroke="#26537F">
                        <g id="Group-Copy-2" transform="translate(60.328351, 43.821807)" stroke-width="1.5" fill="#FFFFFF">
                            <polygon id="Triangle-1" points="45.3986073 0 88.9654453 59.2712961 0.338942052 59.2712961 "></polygon>
                            <path d="M45.2960382,2.27965887 C45.2810829,1.722284 45.5371518,1.62631871 45.8747381,2.07427679 L76.2915945,42.4357336 L63.3042847,50.4801777 L54.3709563,40.5633842 C53.6289517,39.7396928 52.715149,38.2334286 52.330569,37.2007896 L46.4564875,21.4282424 C46.0716173,20.3948241 45.7356208,18.6626919 45.7061753,17.5652721 L45.2960382,2.27965887 Z" id="Triangle-4-Copy-2"></path>
                        </g>
                        <g id="Group-Copy" transform="translate(207.797652, 54.777259)" stroke-width="1.5">
                            <polygon id="Triangle-1" fill="#FFFFFF" points="45.3986073 0 91.1447018 59.2712961 0.338942052 59.2712961 "></polygon>
                            <path d="M88.1377884,2.48203546 C88.4755563,2.0452827 88.7756869,2.13183424 88.809221,2.69330525 L89.5422862,14.9672344 C89.6081459,16.0699433 89.1630947,17.7030216 88.5408857,18.6257177 L77.2289366,35.4006139 C76.6100187,36.3184295 75.762118,37.8988754 75.3400795,38.9186006 L67.2777199,58.3987929 L44.8939026,58.398793 L88.1377884,2.48203546 Z" id="Triangle-4-Copy-2" fill="#ECEFF1" transform="translate(67.221324, 30.301910) scale(-1, 1) translate(-67.221324, -30.301910) "></path>
                        </g>
                        <g id="Group-2" transform="translate(87.140951, 0.000000)" stroke-width="2">
                            <polygon id="Triangle-1-Copy" fill="#FFFFFF" points="92.9300351 0 184.949688 126.973229 0.229614848 126.973229 "></polygon>
                            <path d="M93.1348808,2.55767136 C92.9506939,2.0417431 93.0640485,1.98097962 93.3981399,2.4356636 L184.366132,126.239158 L141.034327,126.239158 L130.783362,95.7304883 C130.431887,94.6844341 129.5774,93.1544565 128.868028,92.3050619 L108.841728,68.3257853 C108.135394,67.4800287 107.471516,65.9015241 107.359538,64.8061916 L104.353366,35.4007923 C104.24111,34.302731 103.846556,32.5622954 103.478376,31.5309809 L93.1348808,2.55767136 Z" id="Triangle-4" fill="#ECEFF1"></path>
                        </g>
                        <g id="Group" transform="translate(106.031647, 51.734078)" stroke-width="2">
                            <polygon id="Triangle-1" fill="#FFFFFF" points="55.706937 0.303245743 111.406332 75.0797061 0.00754213174 75.0797061 "></polygon>
                            <path d="M56.0366629,2.88936566 C55.9014246,2.35594456 56.0613055,2.27986055 56.3896732,2.71401481 L110.695369,74.5147794 L65.8856893,74.5147794 L69.0507353,55.3208632 C69.2303503,54.2316168 68.8902117,52.5973522 68.2893737,51.668093 L59.6467186,38.3013193 C59.0466152,37.3731964 58.6993483,35.7360253 58.8714806,34.6420263 L60.5573695,23.9272361 C60.7293208,22.8343873 60.6505658,21.0880117 60.3773051,20.0101881 L56.0366629,2.88936566 Z" id="Triangle-4-Copy-2" fill="#ECEFF1"></path>
                        </g>
                        <g id="Group-Copy-3" transform="translate(0.000000, 41.387263)" stroke-width="2">
                            <polygon id="Triangle-1" fill="#FFFFFF" points="61.8517938 0 122.202946 85.3972165 0.325481515 85.3972165 "></polygon>
                            <path d="M62.5397439,2.79241818 L120.791136,84.6729309 L87.4055489,84.6729309 L79.0776108,68.1403734 C78.8306148,67.6500388 78.5680372,66.8144063 78.4895701,66.2629924 L75.3201453,43.9904075 C75.1644747,42.8964593 74.3535193,41.4294614 73.5164156,40.7202068 L60.3834573,29.5930176 C59.5429555,28.8808838 58.9882043,27.4254332 59.1471517,26.3229949 L62.5397439,2.79241818 Z" id="Triangle-4-Copy-2" fill="#ECEFF1"></path>
                        </g>
                    </g>
                    <g id="Group-5" transform="translate(227.000000, 0.000000)">
                        <path d="M16.3877551,22.5422535 L15.0408163,28.584507" id="Line" stroke="#26537F" stroke-linecap="square"></path>
                        <path d="M6.51020408,22.5422535 L5.16326531,28.584507" id="Line-Copy" stroke="#26537F" stroke-linecap="square" transform="translate(5.836735, 25.563380) scale(1, -1) translate(-5.836735, -25.563380) "></path>
                        <path d="M15.8631864,27.4225352 L14.6741007,33 L6.86279815,33 L5.67371248,27.4225352 L15.8631864,27.4225352 Z" id="Rectangle-40" fill="#26537F"></path>
                        <path d="M0,11.0287563 C0,15.5123906 3.10173215,21.1367564 5.99078166,25.4030055 C9.53166881,25.403006 10.865736,25.403006 15.7549845,25.403006 C18.5988305,21.1661082 21.7314721,15.4322643 21.7314721,11.0287563 C21.7314721,4.84276553 18.0078215,1.0182033e-15 10.8657364,0 C3.72365119,-1.0224259e-15 0,4.84276553 0,11.0287563 Z" id="Shape" stroke="#26537F" fill="#FFFFFF"></path>
                        <path d="M10.4210526,12.7015032 C10.4210526,17.1851374 10.9287987,24.5564765 10.9287987,24.5564765 C10.9287987,24.5564765 10.6203137,24.7603001 15.5095621,24.7603001 C18.3534081,20.5234023 21.2867884,15.4322643 21.2867884,11.0287563 C21.2867884,4.84276553 17.5631378,1.0182033e-15 10.4210527,0 C10.4210526,7.23581628 10.4210526,6.51551238 10.4210526,12.7015032 Z" id="Shape-Copy" fill="#ECEFF1"></path>
                        <path d="M10.9384006,2.32394366 C13.4180465,2.32394366 15.1162413,1.80371115 15.1162413,1.16197183 C15.1162413,0.528179647 13.4180465,0 10.9384006,0 C8.45875482,0 6.71577534,0.520232509 6.71577534,1.16197183 C6.71577534,1.80371115 8.45875482,2.32394366 10.9384006,2.32394366 Z" id="Oval-8" fill="#26537F"></path>
                        <path d="M8.31063219,1.32266096 C8.31063219,1.32266096 3.55845067,4.40725886 3.50539322,10.5559709 C3.45233576,16.704683 8.31063228,25.5007671 8.31063228,25.5007671" id="Path-419" stroke="#26537F"></path>
                        <path d="M14.2367747,1.32266096 C14.2367747,1.32266096 18.5955177,4.40272434 18.6485751,10.5514364 C18.7016326,16.7001485 14.4156603,25.4639573 14.4156603,25.4639573" id="Path-419-Copy" stroke="#26537F"></path>
                        <path d="M11,1.91157435 L11,25.6711421" id="Path-419-Copy-2" stroke="#26537F"></path>
                    </g>
                </g>
            </g>
        </g>
    </g>
</svg>